<svg width="511" height="511" viewBox="0 0 511 511" fill="none" xmlns="http://www.w3.org/2000/svg">
<path d="M372.049 181.066C367.385 140.071 331.697 126.924 286.875 123.784L285.88 66.8254L251.209 67.4342L252.179 122.892C243.065 123.052 233.752 123.395 224.498 123.741L223.529 67.9161L188.877 68.52L189.858 125.463C182.355 125.747 174.986 126.015 167.798 126.146L167.79 125.969L119.971 126.787L120.626 163.817C120.626 163.817 146.221 162.882 145.803 163.36C159.847 163.12 164.56 171.193 166.012 178.205L167.148 243.093C168.117 243.081 169.382 243.1 170.817 243.271C169.662 243.292 168.425 243.306 167.154 243.339L168.732 334.242C168.193 338.672 165.718 345.764 155.907 345.952C156.357 346.338 130.704 346.386 130.704 346.386L124.538 387.911L169.657 387.122C178.053 386.986 186.317 386.984 194.428 386.894L195.449 444.501L230.082 443.902L229.086 386.903C238.599 386.934 247.803 386.849 256.787 386.684L257.762 443.42L292.432 442.811L291.439 385.306C349.669 380.944 390.209 365.547 394.32 310.722C397.64 266.576 376.564 247.271 343.338 239.904C363.261 229.317 375.513 211.063 372.049 181.066ZM325.694 305.091C326.464 348.142 252.665 344.532 229.168 344.964L227.845 268.637C251.349 268.233 324.913 260.189 325.694 305.091ZM307.689 197.687C308.362 236.854 246.806 233.356 227.234 233.7L226.028 164.475C245.6 164.132 306.972 156.835 307.689 197.687Z" fill="white"/>
</svg>
